#!OML:ASF H:\Dans Jumps\Project 1\Capture day 1\Session 1\subject.ASF
:FULLY-SPECIFIED
:DEGREES
161
root 0.6356 17.4646 -14.0534 4.28934 -0.715432 -1.51305
lowerback -2.10484 -0.663024 -0.165103
upperback 2.17332 -0.940683 1.96074
thorax 3.45135 -0.49963 2.06353
lowerneck -13.9117 0.612844 -1.72376
upperneck 28.9341 1.39251 -0.183015
head 11.7485 0.409566 0.423747
rclavicle -1.15792e-014 -7.95139e-015
rhumerus -21.9287 -16.5912 -80.7481
rradius 24.7379
rwrist 31.8443
rhand -18.5722 -27.1194
rfingers 7.12502
rthumb 7.71806 -56.9585
lclavicle -1.15792e-014 -7.95139e-015
lhumerus -20.4722 1.58452 87.0636
lradius 19.5395
lwrist 1.02079
lhand -24.506 -2.62052
lfingers 7.12502
lthumb 1.98867 27.35
rfemur -11.5741 -2.44573 19.802
rtibia 23.6473
rfoot -14.9648 -4.05286
rtoes 9.58304
lfemur -11.4442 8.55057 -18.9609
ltibia 21.7064
lfoot -12.9382 4.06976
ltoes -1.50892
162
root 0.633499 17.4644 -14.0557 4.29685 -0.693271 -1.52395
lowerback -2.09665 -0.66814 -0.159271
upperback 2.17877 -0.947886 1.96536
thorax 3.45262 -0.503176 2.06472
lowerneck -13.9189 0.615856 -1.71409
upperneck 28.9279 1.39821 -0.195672
head 11.7477 0.411637 0.418195
rclavicle 8.94531e-015 -9.93923e-015
rhumerus -21.865 -16.4816 -80.8009
rradius 24.8139
rwrist 31.7236
rhand -18.5251 -27.1587
rfingers 7.12502
rthumb 7.76352 -56.9962
lclavicle 8.94531e-015 -9.93923e-015
lhumerus -20.4346 1.56592 87.0702
lradius 19.572
lwrist 1.15168
lhand -24.5316 -2.64512
lfingers 7.12502
lthumb 1.96394 27.3256
rfemur -11.5924 -2.44645 19.8227
rtibia 23.6533
rfoot -14.9597 -4.06566
rtoes 9.60507
lfemur -11.4799 8.54383 -18.9431
ltibia 21.7354
lfoot -12.9431 4.05506
ltoes -1.51712
163
root 0.631427 17.4643 -14.0581 4.30441 -0.66774 -1.53535
lowerback -2.09085 -0.674088 -0.153633
upperback 2.18539 -0.956266 1.97088
thorax 3.45652 -0.507343 2.06686
lowerneck -13.925 0.620238 -1.69941
upperneck 28.9175 1.40589 -0.213075
head 11.7451 0.414595 0.410271
rclavicle 3.13086e-015 -9.14409e-015
rhumerus -21.7977 -16.3691 -80.8546
rradius 24.8939
rwrist 31.5983
rhand -18.4794 -27.2101
rfingers 7.12502
rthumb 7.80762 -57.046
lclavicle 3.13086e-015 -9.14409e-015
lhumerus -20.3996 1.53284 87.0839
lradius 19.6203
lwrist 1.32192
lhand -24.5497 -2.6236
lfingers 7.12502
lthumb 1.94643 27.3473
rfemur -11.6101 -2.44939 19.8439
rtibia 23.6582
rfoot -14.9549 -4.07878
rtoes 9.62585
lfemur -11.5169 8.53446 -18.9251
ltibia 21.7655
lfoot -12.9478 4.04076
ltoes -1.52483
164
root 0.629405 17.4641 -14.0605 4.31177 -0.638543 -1.54417
lowerback -2.08575 -0.680716 -0.150571
upperback 2.19286 -0.965464 1.9759
thorax 3.46175 -0.511986 2.06988
lowerneck -13.9346 0.624683 -1.68249
upperneck 28.9064 1.41372 -0.232421
head 11.743 0.417623 0.401281
rclavicle -8.94531e-015 -5.56597e-015
rhumerus -21.7267 -16.2526 -80.9095
rradius 24.9751
rwrist 31.4665
rhand -18.4451 -27.2577
rfingers 7.12502
rthumb 7.84078 -57.0923
lclavicle -8.94531e-015 -5.56597e-015
lhumerus -20.3663 1.4764 87.1054
lradius 19.6833
lwrist 1.54311
lhand -24.5608 -2.56619
lfingers 7.12502
lthumb 1.93575 27.4048
rfemur -11.6268 -2.46009 19.8619
rtibia 23.6634
rfoot -14.9512 -4.08997
rtoes 9.63356
lfemur -11.5534 8.5226 -18.9104
ltibia 21.7948
lfoot -12.953 4.02561
ltoes -1.53152
165
root 0.627362 17.4639 -14.0626 4.31668 -0.602662 -1.55079
lowerback -2.07461 -0.691193 -0.150194
upperback 2.19995 -0.979655 1.98149
thorax 3.46344 -0.519177 2.0748
lowerneck -13.953 0.628255 -1.67609
upperneck 28.8998 1.42119 -0.244446
head 11.7443 0.420175 0.39684
rclavicle 3.32964e-015 8.74653e-015
rhumerus -21.6552 -16.1242 -80.9662
rradius 25.0511
rwrist 31.3342
rhand -18.4709 -27.2472
rfingers 7.12502
rthumb 7.81584 -57.0827
lclavicle 3.32964e-015 8.74653e-015
lhumerus -20.3328 1.41854 87.1287
lradius 19.7486
lwrist 1.7973
lhand -24.5562 -2.5814
lfingers 7.12502
lthumb 1.94021 27.3895
rfemur -11.6385 -2.47597 19.878
rtibia 23.67
rfoot -14.9515 -4.10496
rtoes 9.63265
lfemur -11.5854 8.50784 -18.8974
ltibia 21.8216
lfoot -12.9584 4.00852
ltoes -1.54565
166
root 0.625398 17.4637 -14.0648 4.31988 -0.565642 -1.55581
lowerback -2.06185 -0.700196 -0.150721
upperback 2.20763 -0.99179 1.98558
thorax 3.46473 -0.525346 2.07882
lowerneck -13.9702 0.630409 -1.66732
upperneck 28.8911 1.42552 -0.255138
head 11.7446 0.421786 0.392034
rclavicle 2.68359e-015 0
rhumerus -21.5823 -15.9947 -81.0237
rradius 25.1295
rwrist 31.1935
rhand -18.4915 -27.2411
rfingers 7.12502
rthumb 7.79594 -57.0774
lclavicle 2.68359e-015 0
lhumerus -20.3023 1.33825 87.1575
lradius 19.8297
lwrist 2.08997
lhand -24.5458 -2.55281
lfingers 7.12502
lthumb 1.95025 27.418
rfemur -11.6495 -2.49678 19.8915
rtibia 23.6791
rfoot -14.9537 -4.11562
rtoes 9.63874
lfemur -11.6139 8.4896 -18.8863
ltibia 21.8452
lfoot -12.9627 3.99304
ltoes -1.55739
167
root 0.623461 17.4635 -14.0669 4.32135 -0.52843 -1.55929
lowerback -2.0426 -0.709785 -0.151345
upperback 2.21432 -1.00458 1.98843
thorax 3.46133 -0.531802 2.08164
lowerneck -13.9927 0.630432 -1.66782
upperneck 28.8878 1.42683 -0.257032
head 11.7479 0.422057 0.391721
rclavicle 1.02374e-014 -3.57812e-015
rhumerus -21.5157 -15.8496 -81.085
rradius 25.2141
rwrist 31.0405
rhand -18.5287 -27.2047
rfingers 7.12502
rthumb 7.76004 -57.0423
lclavicle 1.02374e-014 -3.57812e-015
lhumerus -20.2742 1.24551 87.1861
lradius 19.9138
lwrist 2.41027
lhand -24.5232 -2.54748
lfingers 7.12502
lthumb 1.97203 27.4232
rfemur -11.6589 -2.5199 19.9029
rtibia 23.6908
rfoot -14.9585 -4.12299
rtoes 9.65901
lfemur -11.6388 8.47024 -18.8767
ltibia 21.8665
lfoot -12.9672 3.97851
ltoes -1.56798
168
root 0.621581 17.4632 -14.0691 4.3221 -0.494138 -1.56168
lowerback -2.02161 -0.717126 -0.152469
upperback 2.22003 -1.01427 1.98973
thorax 3.45579 -0.536686 2.08334
lowerneck -14.0095 0.629879 -1.66409
upperneck 28.8817 1.42599 -0.258925
head 11.749 0.42188 0.390333
rclavicle 1.51076e-014 -1.39149e-014
rhumerus -21.4529 -15.6967 -81.1483
rradius 25.3085
rwrist 30.8771
rhand -18.5292 -27.2022
rfingers 7.12502
rthumb 7.75953 -57.0398
lclavicle 1.51076e-014 -1.39149e-014
lhumerus -20.2487 1.13435 87.217
lradius 20.0065
lwrist 2.75167
lhand -24.4982 -2.5055
lfingers 7.12502
lthumb 1.99624 27.4649
rfemur -11.6704 -2.5422 19.9124
rtibia 23.7055
rfoot -14.9642 -4.12675
rtoes 9.69335
lfemur -11.6627 8.44972 -18.8686
ltibia 21.8869
lfoot -12.9698 3.96783
ltoes -1.5809
169
root 0.619727 17.4629 -14.0716 4.32202 -0.46451 -1.56355
lowerback -2.0003 -0.72106 -0.15331
upperback 2.22589 -1.01935 1.98895
thorax 3.44999 -0.539237 2.08296
lowerneck -14.0186 0.629004 -1.65598
upperneck 28.8711 1.42267 -0.258878
head 11.7468 0.421401 0.388502
rclavicle -3.37934e-015 -1.59028e-015
rhumerus -21.3953 -15.5379 -81.2144
rradius 25.4174
rwrist 30.7049
rhand -18.4963 -27.2287
rfingers 7.12502
rthumb 7.79138 -57.0651
lclavicle -3.37934e-015 -1.59028e-015
lhumerus -20.224 1.00557 87.2489
lradius 20.1095
lwrist 3.10612
lhand -24.4664 -2.40122
lfingers 7.12502
lthumb 2.02692 27.5689
rfemur -11.6843 -2.56091 19.9211
rtibia 23.7231
rfoot -14.9693 -4.1288
rtoes 9.72092
lfemur -11.6859 8.42742 -18.8611
ltibia 21.9068
lfoot -12.9718 3.96201
ltoes -1.58685
170
root 0.617863 17.4625 -14.0744 4.32274 -0.437839 -1.56504
lowerback -1.97965 -0.723237 -0.155937
upperback 2.23165 -1.02203 1.98821
thorax 3.44441 -0.540636 2.08375
lowerneck -14.0256 0.627302 -1.6505
upperneck 28.8594 1.4175 -0.254497
head 11.7437 0.420377 0.388458
rclavicle 1.14301e-014 1.98785e-015
rhumerus -21.3398 -15.3712 -81.2817
rradius 25.5353
rwrist 30.5275
rhand -18.442 -27.2767
rfingers 7.12502
rthumb 7.84375 -57.1112
lclavicle 1.14301e-014 1.98785e-015
lhumerus -20.1984 0.867787 87.2825
lradius 20.2182
lwrist 3.46569
lhand -24.4382 -2.25507
lfingers 7.12502
lthumb 2.05418 27.7148
rfemur -11.7024 -2.57766 19.9297
rtibia 23.743
rfoot -14.9722 -4.13167
rtoes 9.73223
lfemur -11.7113 8.4065 -18.8543
ltibia 21.9272
lfoot -12.9722 3.95805
ltoes -1.59435
171
root 0.61599 17.4622 -14.0772 4.32362 -0.412899 -1.56411
lowerback -1.95654 -0.724805 -0.162966
upperback 2.23611 -1.02371 1.988
thorax 3.43615 -0.541637 2.08763
lowerneck -14.0334 0.624926 -1.651
upperneck 28.8498 1.4114 -0.244714
head 11.7414 0.418946 0.391334
rclavicle 4.47266e-016 -5.96354e-015
rhumerus -21.2877 -15.1969 -81.349
rradius 25.6576
rwrist 30.3498
rhand -18.4131 -27.3029
rfingers 7.12502
rthumb 7.87159 -57.1364
lclavicle 4.47266e-016 -5.96354e-015
lhumerus -20.1738 0.740711 87.3149
lradius 20.3309
lwrist 3.81165
lhand -24.4027 -2.08975
lfingers 7.12502
lthumb 2.08847 27.8798
rfemur -11.7223 -2.59154 19.9357
rtibia 23.7641
rfoot -14.9734 -4.13664
rtoes 9.73556
lfemur -11.7377 8.38674 -18.8503
ltibia 21.9479
lfoot -12.9705 3.95447
ltoes -1.60529
